<svg width="198" height="56" viewBox="0 0 198 56" fill="none" xmlns="http://www.w3.org/2000/svg">
<path d="M5.88809 21.8197H0V14.856H5.88809V11.0839C5.88809 9.30432 6.17957 7.73748 6.76255 6.38342C7.34553 4.99067 8.14227 3.83005 9.15277 2.90156C10.1633 1.93437 11.3292 1.21865 12.6506 0.754405C14.0109 0.251468 15.4684 0 17.023 0C18.1501 0 19.1023 0.0580315 19.8796 0.174094C20.6958 0.290155 21.4342 0.444904 22.0949 0.638341V7.66011C21.1621 7.31192 20.0739 7.13783 18.8302 7.13783C17.0813 7.13783 15.8182 7.5247 15.0409 8.29845C14.2635 9.03351 13.8749 10.2908 13.8749 12.0705V14.856H22.0949V21.8197H13.8749V43.8715H5.88809V21.8197ZM30.7813 10.0974C30.0817 10.0974 29.421 9.962 28.7992 9.69119C28.2162 9.42038 27.6915 9.0722 27.2251 8.64663C26.7587 8.18238 26.3895 7.64076 26.1175 7.02176C25.8454 6.40276 25.7094 5.74508 25.7094 5.04871C25.7094 4.35233 25.8454 3.69465 26.1175 3.07565C26.3895 2.45665 26.7587 1.93437 27.2251 1.50881C27.6915 1.04456 28.2162 0.67703 28.7992 0.406219C29.421 0.135406 30.0817 0 30.7813 0C32.2193 0 33.4241 0.502937 34.3958 1.50881C35.4062 2.47599 35.9115 3.65596 35.9115 5.04871C35.9115 6.44145 35.4062 7.64076 34.3958 8.64663C33.4241 9.61382 32.2193 10.0974 30.7813 10.0974ZM26.817 14.856H34.8038V43.8715H26.817V14.856Z" fill="black"/>
<path d="M43.0626 14.856H51.0494V18.1637C51.8267 17.0031 52.9343 16.0553 54.3723 15.3202C55.8104 14.5851 57.4816 14.2176 59.386 14.2176C61.1349 14.2176 62.7089 14.5271 64.1081 15.1461C65.5072 15.7651 66.6926 16.6356 67.6643 17.7575C68.6359 18.8408 69.3743 20.1561 69.8796 21.7036C70.3848 23.2511 70.6375 24.9727 70.6375 26.8684V43.8715H62.6506V28.2031C62.6506 26.114 62.2037 24.4698 61.3098 23.2705C60.4548 22.0712 59.1916 21.4715 57.5204 21.4715C55.6549 21.4715 54.1003 22.1485 52.8566 23.5026C51.6518 24.8567 51.0494 26.9264 51.0494 29.7119V43.8715H43.0626V14.856Z" fill="black"/>
<path d="M115.272 28.3772C115.272 26.2107 114.903 24.5278 114.165 23.3285C113.465 22.0905 112.318 21.4715 110.725 21.4715C109.015 21.4715 107.635 22.1098 106.586 23.3865C105.536 24.6632 104.973 26.6363 104.895 29.3057V43.8715H96.9084V28.3772C96.9084 26.2107 96.5392 24.5278 95.8007 23.3285C95.1012 22.0905 93.9546 21.4715 92.3612 21.4715C90.6122 21.4715 89.1936 22.1485 88.1054 23.5026C87.0561 24.8567 86.5314 26.9264 86.5314 29.7119V43.8715H78.5446V14.856H86.5314V18.1637C87.3087 17.0418 88.3386 16.1133 89.6212 15.3782C90.9426 14.6045 92.4972 14.2176 94.285 14.2176C96.3837 14.2176 98.1909 14.7012 99.7067 15.6684C101.222 16.5969 102.427 17.8929 103.321 19.5565C103.788 18.6667 104.351 17.8929 105.012 17.2352C105.711 16.5775 106.469 16.0359 107.285 15.6104C108.102 15.1461 108.937 14.7979 109.792 14.5658C110.686 14.3337 111.541 14.2176 112.357 14.2176C115.855 14.2176 118.537 15.3782 120.402 17.6995C122.307 19.982 123.259 23.0964 123.259 27.0425V43.8715H115.272V28.3772Z" fill="black"/>
<path d="M142.997 44.5098C141.054 44.5098 139.247 44.1036 137.576 43.2912C135.905 42.4788 134.447 41.3955 133.203 40.0415C131.999 38.6487 131.046 37.0432 130.347 35.2249C129.647 33.3679 129.297 31.4142 129.297 29.3637C129.297 27.3133 129.647 25.3789 130.347 23.5606C131.046 21.7036 131.999 20.0981 133.203 18.744C134.447 17.3513 135.905 16.2487 137.576 15.4363C139.247 14.6238 141.054 14.2176 142.997 14.2176C145.018 14.2176 146.748 14.6432 148.186 15.4943C149.663 16.3067 150.732 17.1772 151.392 18.1057V14.856H159.379V43.8715H151.392V40.6218C150.732 41.5503 149.663 42.4401 148.186 43.2912C146.748 44.1036 145.018 44.5098 142.997 44.5098ZM144.688 37.256C146.903 37.256 148.672 36.5209 149.993 35.0508C151.353 33.542 152.034 31.6463 152.034 29.3637C152.034 27.0812 151.353 25.2048 149.993 23.7347C148.672 22.2259 146.903 21.4715 144.688 21.4715C142.473 21.4715 140.685 22.2259 139.325 23.7347C138.003 25.2048 137.343 27.0812 137.343 29.3637C137.343 31.6463 138.003 33.542 139.325 35.0508C140.685 36.5209 142.473 37.256 144.688 37.256Z" fill="black"/>
<path d="M167.727 56V14.856H175.713V18.1057C176.374 17.1772 177.443 16.3067 178.92 15.4943C180.397 14.6432 182.146 14.2176 184.167 14.2176C186.11 14.2176 187.917 14.6238 189.588 15.4363C191.26 16.2487 192.698 17.3513 193.902 18.744C195.146 20.0981 196.118 21.7036 196.817 23.5606C197.517 25.3789 197.867 27.3133 197.867 29.3637C197.867 31.4142 197.517 33.3679 196.817 35.2249C196.118 37.0432 195.146 38.6487 193.902 40.0415C192.698 41.3955 191.26 42.4788 189.588 43.2912C187.917 44.1036 186.11 44.5098 184.167 44.5098C182.146 44.5098 180.397 44.1036 178.92 43.2912C177.443 42.4401 176.374 41.5503 175.713 40.6218V56H167.727ZM182.418 37.256C184.633 37.256 186.401 36.5209 187.723 35.0508C189.083 33.542 189.763 31.6463 189.763 29.3637C189.763 27.0812 189.083 25.2048 187.723 23.7347C186.401 22.2259 184.633 21.4715 182.418 21.4715C180.202 21.4715 178.415 22.2259 177.054 23.7347C175.733 25.2048 175.072 27.0812 175.072 29.3637C175.072 31.6463 175.733 33.542 177.054 35.0508C178.415 36.5209 180.202 37.256 182.418 37.256Z" fill="black"/>
</svg>
